<?xml version="1.0" encoding="utf-8"?>
<!-- Generator: Adobe Illustrator 23.1.1, SVG Export Plug-In . SVG Version: 6.00 Build 0)  -->
<svg version="1.1" id="Ebene_1" xmlns="http://www.w3.org/2000/svg" xmlns:xlink="http://www.w3.org/1999/xlink" x="0px" y="0px"
	 viewBox="0 0 2195.65 336.58" style="enable-background:new 0 0 2195.65 336.58;" xml:space="preserve">
<style type="text/css">
	.st0{fill:#50B3D8;}
	.st1{fill:#706F6F;}
	.st2{fill:url(#SVGID_1_);}
	.st3{fill:#A8D9EB;}
	.st4{fill:url(#SVGID_2_);}
	.st5{fill:#D3ECF5;}
</style>
<g>
	<path class="st0" d="M544.1,110.51c0-34.31,19.56-53.55,48.42-53.55s48.42,19.4,48.42,53.55c0,34.31-19.56,54.52-48.42,54.52
		S544.1,144.82,544.1,110.51z M612.72,110.51c0-18.92-7.7-29.82-20.2-29.82s-20.2,10.9-20.2,29.82c0,18.92,7.7,30.79,20.2,30.79
		S612.72,129.43,612.72,110.51z"/>
	<path class="st0" d="M656.34,58.88h38.16c22.77,0,42.33,8.34,42.33,34.63c0,25.49-19.88,36.56-41.69,36.56h-11.22v33.03h-27.58
		V58.88z M693.85,108.26c10.9,0,16.03-5.45,16.03-14.75s-6.09-12.83-16.67-12.83h-9.3v27.58H693.85z"/>
	<path class="st0" d="M750.62,58.88h67.34v23.09H778.2v16.35h33.99v23.09H778.2v18.6h41.37v23.09h-68.95V58.88z"/>
	<path class="st0" d="M836.56,58.88h28.22l23.09,46.5l9.94,23.41h0.64c-1.28-11.22-3.53-26.94-3.53-39.76V58.88h26.29V163.1H893
		l-23.09-46.66l-9.94-23.25h-0.64c1.28,11.87,3.53,26.94,3.53,39.76v30.14h-26.29V58.88z"/>
	<path class="st0" d="M982.8,58.88h29.5l15.71,42.65c1.92,5.77,3.53,12.19,5.45,18.28h0.64c1.92-6.09,3.53-12.51,5.45-18.28
		l15.07-42.65h29.5V163.1h-25.01v-30.79c0-10.58,2.24-26.78,3.53-37.2H1062l-8.66,25.01l-12.83,34.47h-14.75l-12.83-34.47
		l-8.34-25.01h-0.64c1.28,10.42,3.53,26.62,3.53,37.2v30.79H982.8V58.88z"/>
	<path class="st0" d="M1125.82,58.88h33.35l31.75,104.22h-29.18l-11.87-50.67c-2.57-9.94-5.13-22.61-7.7-33.03h-0.64
		c-2.25,10.58-4.81,23.09-7.38,33.03l-11.87,50.67h-28.22L1125.82,58.88z M1116.84,119.65h50.99v21.33h-50.99V119.65z"/>
	<path class="st0" d="M1199.26,58.88h28.22l23.09,46.5l9.94,23.41h0.64c-1.28-11.22-3.53-26.94-3.53-39.76V58.88h26.29V163.1h-28.22
		l-23.09-46.66l-9.94-23.25h-0.64c1.28,11.87,3.53,26.94,3.53,39.76v30.14h-26.29V58.88z"/>
	<path class="st0" d="M1303.17,112.75V58.88h27.58v57.08c0,18.6,4.81,25.33,15.71,25.33c10.9,0,16.03-6.73,16.03-25.33V58.88h26.62
		v53.87c0,35.6-13.47,52.27-42.65,52.27C1317.28,165.02,1303.17,148.35,1303.17,112.75z"/>
	<path class="st0" d="M1408.35,58.88h67.98v23.09h-40.41v19.88h34.63v23.09h-34.63v38.16h-27.58V58.88z"/>
	<path class="st0" d="M1512.9,58.88h33.35l31.75,104.22h-29.18l-11.87-50.67c-2.57-9.94-5.13-22.61-7.7-33.03h-0.64
		c-2.25,10.58-4.81,23.09-7.38,33.03l-11.87,50.67h-28.22L1512.9,58.88z M1503.92,119.65h50.99v21.33h-50.99V119.65z"/>
	<path class="st0" d="M1580.24,111.79c0-34.95,24.05-54.84,50.35-54.84c13.79,0,25.01,6.41,32.39,13.79l-14.43,17.64
		c-5.13-4.49-10.26-7.7-17.32-7.7c-12.19,0-22.77,11.22-22.77,30.14c0,19.56,8.98,30.46,22.45,30.46c8.02,0,14.43-4.17,18.92-8.98
		l14.43,17.32c-8.82,10.26-20.84,15.39-34.31,15.39C1603.33,165.02,1580.24,147.39,1580.24,111.79z"/>
	<path class="st0" d="M1696.98,81.97h-27.58V58.88h82.73v23.09h-27.58v81.13h-27.58V81.97z"/>
	<path class="st0" d="M1763.68,112.75V58.88h27.58v57.08c0,18.6,4.81,25.33,15.71,25.33c10.9,0,16.03-6.73,16.03-25.33V58.88h26.62
		v53.87c0,35.6-13.47,52.27-42.65,52.27C1777.79,165.02,1763.68,148.35,1763.68,112.75z"/>
	<path class="st0" d="M1865.66,58.88h39.44c22.45,0,41.69,7.7,41.69,33.67c0,25.17-19.24,35.59-41.69,35.59h-11.87v34.95h-27.58
		V58.88z M1903.18,106.34c10.9,0,16.68-4.81,16.68-13.79c0-8.98-5.77-11.87-16.68-11.87h-9.94v25.65H1903.18z M1900.13,120.93
		l18.6-18.28l33.83,60.45h-30.79L1900.13,120.93z"/>
	<path class="st0" d="M1963.47,58.88h27.58V163.1h-27.58V58.88z"/>
	<path class="st0" d="M2010.93,58.88h28.22l23.09,46.5l9.94,23.41h0.64c-1.28-11.22-3.53-26.94-3.53-39.76V58.88h26.3V163.1h-28.22
		l-23.09-46.66l-9.94-23.25h-0.64c1.28,11.87,3.53,26.94,3.53,39.76v30.14h-26.3V58.88z"/>
	<path class="st0" d="M2107.78,111.79c0-34.95,24.05-54.84,51.95-54.84c15.39,0,26.62,6.41,33.99,13.79l-14.43,17.64
		c-5.13-4.49-10.26-7.7-18.6-7.7c-14.11,0-24.69,11.22-24.69,30.14c0,19.56,8.66,30.46,27.26,30.46c2.89,0,6.09-0.64,8.02-1.92
		v-14.43h-15.39v-22.45h39.76v49.71c-7.38,7.06-20.52,12.83-35.27,12.83C2131.19,165.02,2107.78,147.39,2107.78,111.79z"/>
</g>
<g>
	<path class="st1" d="M557.97,212.34h19.63c13.84,0,24.09,4.8,24.09,19.21c0,13.9-10.29,20.21-23.71,20.21h-8.96v22.91h-11.06
		V212.34z M577.07,242.91c9.3,0,13.72-3.7,13.72-11.36c0-7.74-4.84-10.37-14.11-10.37h-7.66v21.73H577.07z"/>
	<path class="st1" d="M639.17,212.34h11.06v53.03h25.88v9.3h-36.94V212.34z"/>
	<path class="st1" d="M724.75,212.34h12.96l20.32,62.33h-11.7l-9.49-33.17c-1.98-6.59-3.81-13.71-5.64-20.55h-0.38
		c-1.72,6.9-3.55,13.95-5.53,20.55l-9.57,33.17h-11.28L724.75,212.34z M716.44,249.11h29.35v8.67h-29.35V249.11z"/>
	<path class="st1" d="M805,221.64H787v-9.3h47.04v9.3h-17.99v53.03H805V221.64z"/>
	<path class="st1" d="M874,212.34h37.67v9.3h-26.61v17.69h22.64v9.3h-22.64v26.04H874V212.34z"/>
	<path class="st1" d="M944.1,243.26c0-20.17,11.25-32.06,27.49-32.06s27.49,11.95,27.49,32.06c0,20.17-11.25,32.56-27.49,32.56
		S944.1,263.42,944.1,243.26z M987.71,243.26c0-13.99-6.33-22.45-16.12-22.45c-9.8,0-16.13,8.46-16.13,22.45
		c0,13.99,6.33,22.95,16.13,22.95C981.39,266.21,987.71,257.25,987.71,243.26z"/>
	<path class="st1" d="M1037.35,212.34h21c12.96,0,22.95,4.57,22.95,18.49c0,13.4-9.99,19.48-22.95,19.48h-9.95v24.36h-11.06V212.34z
		 M1057.21,241.47c8.54,0,13.19-3.54,13.19-10.64c0-7.17-4.65-9.65-13.19-9.65h-8.81v20.28H1057.21z M1056.28,247.36l8.01-6.6
		l19.46,33.91h-12.43L1056.28,247.36z"/>
	<path class="st1" d="M1119.5,212.34h12.5l11.02,30.46c1.37,3.96,2.63,8.16,4,12.24h0.38c1.37-4.08,2.55-8.27,3.93-12.24
		l10.79-30.46h12.5v62.33h-10.14v-28.52c0-5.76,0.88-14.05,1.41-19.82h-0.38l-5.03,14.49l-10.25,28h-6.56l-10.29-28l-4.96-14.49
		h-0.38c0.53,5.78,1.41,14.07,1.41,19.82v28.52h-9.95V212.34z"/>
</g>
<g>
	<linearGradient id="SVGID_1_" gradientUnits="userSpaceOnUse" x1="326.96" y1="205.7637" x2="444.7397" y2="54.9763">
		<stop  offset="0" style="stop-color:#50B3D8"/>
		<stop  offset="0.2343" style="stop-color:#6DBFDE"/>
		<stop  offset="0.5518" style="stop-color:#8DCDE5"/>
		<stop  offset="0.8185" style="stop-color:#A1D6EA"/>
		<stop  offset="1" style="stop-color:#A8D9EB"/>
	</linearGradient>
	<polygon class="st2" points="323.85,112.19 259.08,224.38 388.63,224.37 453.39,112.18 	"/>
	<polygon class="st3" points="64.78,336.58 0,224.22 129.49,224.22 194.32,336.57 	"/>
	
		<linearGradient id="SVGID_2_" gradientUnits="userSpaceOnUse" x1="1494.4792" y1="-3745.2432" x2="1452.8416" y2="-3859.665" gradientTransform="matrix(0.866 -0.5001 0.5001 0.866 722.3622 4197.918)">
		<stop  offset="0" style="stop-color:#50B3D8"/>
		<stop  offset="0.2343" style="stop-color:#6DBFDE"/>
		<stop  offset="0.5518" style="stop-color:#8DCDE5"/>
		<stop  offset="0.8185" style="stop-color:#A1D6EA"/>
		<stop  offset="1" style="stop-color:#A8D9EB"/>
	</linearGradient>
	<polygon class="st4" points="129.49,224.22 0,224.22 64.64,112.08 194.3,112.08 	"/>
	<polygon class="st3" points="388.61,0 259.07,0.01 323.85,112.19 453.39,112.18 	"/>
	<path class="st5" d="M194.32,336.57l129.53-224.38L259.07,0.01L129.49,224.22L194.32,336.57z"/>
</g>
<g>
</g>
<g>
</g>
<g>
</g>
<g>
</g>
<g>
</g>
<g>
</g>
</svg>
